<svg xmlns="http://www.w3.org/2000/svg" viewBox="0 0 4.31 2.99"><defs><style>.cls-1{fill:#fff;}</style></defs><g id="Capa_2" data-name="Capa 2"><g id="Capa_2-2" data-name="Capa 2"><path class="cls-1" d="M4.3,2.1,4.16,2a.27.27,0,0,0-.33,0l-.09-.1h0s0,0,0,0L3.92,1s0,0,0,0L3.69.9a.25.25,0,0,0-.28.18L3,1h-.1V.81a.32.32,0,0,0-.1-.25A.36.36,0,0,0,2.51.45a.36.36,0,0,0-.25.11.32.32,0,0,0-.1.25v.24H2L1.8.87a.88.88,0,0,0,0-.17A.7.7,0,0,0,.42.6L.09.93A.31.31,0,0,0,0,1.15a.32.32,0,0,0,.09.23l.74.74v.07a.5.5,0,0,0,.5.5H1.4l0,0a.91.91,0,0,0,1.27,0l.45-.45.48.48a.05.05,0,0,0,0,0l0,0,.59-.59A0,0,0,0,0,4.3,2.1Zm-1.09.1V1.85a.34.34,0,0,0,.19-.09l.06-.07.19.19-.38.38Zm-.53-.45-.2-.2V1.46h0a.16.16,0,0,0,.09,0h.06a.29.29,0,0,0,.16,0l.08.11-.07.06Zm.21-.65a.17.17,0,0,1,0,.1.25.25,0,0,1-.11.16.24.24,0,0,1-.19,0,.11.11,0,0,1-.07,0,.31.31,0,0,1,.13-.17A.36.36,0,0,1,2.89,1.1Zm.27.37a.46.46,0,0,0-.2.05L2.87,1.4A.33.33,0,0,0,3,1.21a.17.17,0,0,0,0-.1l.25,0,0,.33Zm0,.09a.41.41,0,0,1,.22.07.21.21,0,0,1,0,.06.25.25,0,0,1-.36,0l0-.06A.44.44,0,0,1,3.16,1.56Zm.57.19H3.65L3.75,1h.08Zm-.29-.58a.05.05,0,0,0,.05,0A.16.16,0,0,1,3.66,1l-.09.68,0,0a.47.47,0,0,0-.24-.13l0-.33ZM2.6,1.11a.46.46,0,0,0-.14.17l-.21-.21V.8h.53V1A.61.61,0,0,0,2.6,1.11ZM2.51.54A.26.26,0,0,1,2.7.62a.24.24,0,0,1,.06.09H2.27A.24.24,0,0,1,2.33.62.25.25,0,0,1,2.51.54Zm-.32.6.23.23s0,0,0,.07v0l-.33-.33Zm.42.68L2.47,2l-.81-.81A.87.87,0,0,0,1.77,1ZM1.73.7V.77A.61.61,0,0,1,1.2.93.21.21,0,0,0,1.13.78.2.2,0,0,0,1,.71h0a.54.54,0,0,1,.14-.6l0,0h0A.62.62,0,0,1,1.73.7ZM1,.8a.13.13,0,0,1,.1,0,.18.18,0,0,1,0,.1.15.15,0,0,1,0,.1.13.13,0,0,1-.1,0,.12.12,0,0,1-.1,0A.12.12,0,0,1,.82.94.14.14,0,0,1,.87.84.12.12,0,0,1,1,.8ZM1,.11A.64.64,0,0,0,.85.74l0,0A.24.24,0,0,0,.73.94a.28.28,0,0,0,.07.17A.26.26,0,0,0,1,1.18.25.25,0,0,0,1.19,1h.13A.65.65,0,0,0,1.69.91a.6.6,0,0,1-.57.41A.62.62,0,0,1,.5.7.62.62,0,0,1,1,.11ZM.83,1.54.22.93.41.74a.71.71,0,0,0,.42.61v.19Zm-.49,0,.17-.16.07.07-.16.16ZM.09,1.15A.21.21,0,0,1,.16,1l.28.29-.16.16L.16,1.32A.23.23,0,0,1,.09,1.15Zm.39.49.16-.16.19.19V2Zm.45.62a.23.23,0,0,1,.26.05.24.24,0,0,1,0,.28A.39.39,0,0,1,.93,2.26Zm.87.34H1.32a.32.32,0,0,0,0-.31l.23-.22H1.8m.26.26a.26.26,0,0,1-.17.25V2.09A.26.26,0,0,1,2.06,2.33Zm.59.33a.81.81,0,0,1-1.12,0h.26a.36.36,0,1,0,0-.71H1.55V1.47a0,0,0,0,0-.05,0,0,0,0,0,0,0,0V2l-.23.23a.3.3,0,0,0-.31-.06V1.38a.64.64,0,0,0,.2,0,.72.72,0,0,0,.48-.2L2.41,2l-.11.11s0,.05,0,.06a0,0,0,0,0,.06,0l.51-.5,0,.07a.37.37,0,0,0,.2.09V2.2Zm.69-.33L3.72,2,3.8,2s0,0,.06,0a.17.17,0,0,1,.23,0l-.53.53Zm.34.34-.06-.06.53-.52,0,.05Z"/></g></g></svg>